<?xml version="1.0" encoding="UTF-8" standalone="no"?>
<svg
   xmlns:dc="http://purl.org/dc/elements/1.1/"
   xmlns:cc="http://creativecommons.org/ns#"
   xmlns:rdf="http://www.w3.org/1999/02/22-rdf-syntax-ns#"
   xmlns:svg="http://www.w3.org/2000/svg"
   xmlns="http://www.w3.org/2000/svg"
   xmlns:sodipodi="http://sodipodi.sourceforge.net/DTD/sodipodi-0.dtd"
   xmlns:inkscape="http://www.inkscape.org/namespaces/inkscape"
   height="67px"
   id="Layer_1"
   style="enable-background:new 0 0 67 67;"
   version="1.1"
   viewBox="0 0 67 67"
   width="67px"
   xml:space="preserve"
   inkscape:version="0.91 r13725"
   sodipodi:docname="github-circle.svg"><metadata
     id="metadata9"><rdf:RDF><cc:Work
         rdf:about=""><dc:format>image/svg+xml</dc:format><dc:type
           rdf:resource="http://purl.org/dc/dcmitype/StillImage" /></cc:Work></rdf:RDF></metadata><defs
     id="defs7" /><sodipodi:namedview
     pagecolor="#ffffff"
     bordercolor="#666666"
     borderopacity="1"
     objecttolerance="10"
     gridtolerance="10"
     guidetolerance="10"
     inkscape:pageopacity="0"
     inkscape:pageshadow="2"
     inkscape:window-width="1440"
     inkscape:window-height="792"
     id="namedview5"
     showgrid="false"
     inkscape:zoom="3.5223881"
     inkscape:cx="-12.633474"
     inkscape:cy="33.5"
     inkscape:window-x="0"
     inkscape:window-y="0"
     inkscape:window-maximized="1"
     inkscape:current-layer="Layer_1" /><path
     d="m 19.897078,34.487865 c -0.05988,0 0.656428,1.515768 0.676386,1.515768 1.563447,2.789809 4.577241,4.524017 9.661216,5.005248 -0.725173,0.541108 -1.596712,1.567881 -1.717574,2.754328 -0.912566,0.579917 -2.747675,0.771743 -4.173628,0.329322 -1.999216,-0.619835 -2.764307,-4.508494 -5.757033,-3.954079 -0.647555,0.118643 -0.518931,0.538889 0.04103,0.897041 0.912565,0.579917 1.770798,1.306199 2.432768,2.850795 0.508951,1.186446 1.577861,3.305415 4.959786,3.305415 1.341682,0 2.281968,-0.158561 2.281968,-0.158561 0,0 0.02551,3.028208 0.02551,4.205783 0,1.358314 -1.865047,1.74086 -1.865047,2.393959 0,0.258356 0.617616,0.28275 1.113262,0.28275 0.980205,0 3.019338,-0.803899 3.019338,-2.215437 0,-1.121024 0.01885,-4.88993 0.01885,-5.550791 0,-1.441476 0.78616,-1.898314 0.78616,-1.898314 0,0 0.09758,7.695265 -0.187392,8.728693 -0.334867,1.213056 -0.939178,1.041189 -0.939178,1.582296 0,0.80501 2.454944,0.198481 3.268823,-1.5701 0.628707,-1.373838 0.353717,-8.926062 0.353717,-8.926062 l 0.670841,-0.01331 c 0,0 0.0377,3.456215 0.01441,5.036295 -0.02328,1.63663 -0.136386,3.705702 0.852689,4.68147 0.649773,0.642012 2.754328,1.767472 2.754328,0.73848 0,-0.597658 -1.153181,-1.088869 -1.153181,-2.706648 l 0,-7.445779 c 0.921435,0 0.782832,2.448291 0.782832,2.448291 l 0.06765,4.54952 c 0,0 -0.204025,1.656589 1.824021,2.349606 0.715194,0.24727 2.245376,0.313799 2.31745,-0.09979 0.07207,-0.413593 -1.842872,-1.028993 -1.860613,-2.310798 -0.01109,-0.78394 0.03548,-1.240778 0.03548,-4.642661 0,-3.401883 -0.464599,-4.659294 -2.084596,-5.661674 4.998595,-0.504517 8.093333,-1.719792 9.60023,-4.974201 0.117536,0.0033 0.615399,-1.520204 0.549979,-1.520204 0.338192,-1.228581 0.521149,-2.682253 0.556631,-4.403154 -0.0088,-4.668165 -2.281968,-6.319208 -2.717737,-7.09428 0.64312,-3.533834 -0.108664,-5.141632 -0.456836,-5.69383 -1.288458,-0.450184 -4.480773,1.158725 -6.226068,2.291947 C 36.580523,18.777997 30.56846,18.856724 28.314212,19.805879 24.155,16.879684 21.953976,17.32765 21.953976,17.32765 c 0,0 -1.422625,2.504841 -0.375892,6.170625 -1.368293,1.714248 -2.388415,2.927306 -2.388415,6.141797 0.001,1.811826 0.21844,3.432932 0.707432,4.847795 z m 13.812668,32.635016 c -18.371057,0 -33.26483075,-14.893773 -33.26483075,-33.264829 0,-18.372167 14.89377375,-33.26483161 33.26483075,-33.26483161 18.371057,0 33.26483,14.89266461 33.26483,33.26483161 0,18.371056 -14.893773,33.264829 -33.26483,33.264829 z"
     style="clip-rule:evenodd;fill:#aab8c2;fill-opacity:1;fill-rule:evenodd"
     id="path3"
     inkscape:connector-curvature="0" /></svg>