<?xml version="1.0" encoding="UTF-8" standalone="no"?>
<svg
   xmlns:dc="http://purl.org/dc/elements/1.1/"
   xmlns:cc="http://creativecommons.org/ns#"
   xmlns:rdf="http://www.w3.org/1999/02/22-rdf-syntax-ns#"
   xmlns:svg="http://www.w3.org/2000/svg"
   xmlns="http://www.w3.org/2000/svg"
   xmlns:sodipodi="http://sodipodi.sourceforge.net/DTD/sodipodi-0.dtd"
   xmlns:inkscape="http://www.inkscape.org/namespaces/inkscape"
   height="67px"
   id="Layer_1"
   style="enable-background:new 0 0 67 67;"
   version="1.1"
   viewBox="0 0 67 67"
   width="67px"
   xml:space="preserve"
   inkscape:version="0.91 r13725"
   sodipodi:docname="twitter-circle.svg"><metadata
     id="metadata9"><rdf:RDF><cc:Work
         rdf:about=""><dc:format>image/svg+xml</dc:format><dc:type
           rdf:resource="http://purl.org/dc/dcmitype/StillImage" /></cc:Work></rdf:RDF></metadata><defs
     id="defs7" /><sodipodi:namedview
     pagecolor="#ffffff"
     bordercolor="#666666"
     borderopacity="1"
     objecttolerance="10"
     gridtolerance="10"
     guidetolerance="10"
     inkscape:pageopacity="0"
     inkscape:pageshadow="2"
     inkscape:window-width="1440"
     inkscape:window-height="792"
     id="namedview5"
     showgrid="false"
     inkscape:zoom="3.5223881"
     inkscape:cx="-12.633474"
     inkscape:cy="33.5"
     inkscape:window-x="0"
     inkscape:window-y="0"
     inkscape:window-maximized="1"
     inkscape:current-layer="Layer_1" /><path
     d="m 38.194638,20.582018 c -2.90402,1.056713 -4.73913,3.782212 -4.530671,6.764959 l 0.06986,1.150962 -1.162051,-0.140821 C 28.343812,27.817119 24.649199,25.985336 21.512325,22.90723 l -1.533509,-1.526856 -0.394742,1.127678 c -0.836057,2.513712 -0.301601,5.168246 1.440367,6.953459 0.929198,0.986857 0.719629,1.127678 -0.882627,0.539999 -0.55774,-0.187392 -1.045625,-0.328214 -1.092195,-0.258358 -0.161889,0.165217 0.394743,2.301927 0.836056,3.147963 0.604311,1.175357 1.835109,2.325211 3.183444,3.007141 l 1.138766,0.539999 -1.347225,0.02328 c -1.300656,0 -1.347226,0.02328 -1.207514,0.517823 0.464599,1.526856 2.299708,3.147962 4.344387,3.853177 l 1.440367,0.492319 -1.254084,0.751786 c -1.858395,1.082215 -4.042786,1.69207 -6.227176,1.737532 -1.046734,0.02328 -1.906075,0.117536 -1.906075,0.188501 0,0.233963 2.835272,1.549032 4.4841,2.066855 4.948697,1.526855 10.827701,0.868212 15.241945,-1.738642 3.136873,-1.856178 6.272637,-5.544138 7.737399,-9.115672 0.790594,-1.90164 1.580079,-5.378924 1.580079,-7.045492 0,-1.081107 0.06986,-1.221928 1.370511,-2.513712 0.767309,-0.751785 1.486939,-1.573427 1.62665,-1.808498 0.232855,-0.446857 0.20846,-0.446857 -0.975768,-0.04769 -1.974822,0.705215 -2.254246,0.610965 -1.27737,-0.445749 0.71963,-0.751784 1.58008,-2.114534 1.58008,-2.513712 0,-0.06985 -0.348172,0.04657 -0.744023,0.258357 -0.418028,0.235072 -1.347225,0.587678 -2.044678,0.798356 l -1.254084,0.400287 -1.138766,-0.77618 c -0.627597,-0.422463 -1.509115,-0.892606 -1.974823,-1.033427 -1.185337,-0.328213 -2.99827,-0.281642 -4.067179,0.09425 z m -4.620485,46.256965 c -18.371057,0 -33.26483097,-14.893774 -33.26483097,-33.26483 0,-18.372167 14.89377397,-33.26483097 33.26483097,-33.26483097 18.371056,0 33.26483,14.89266397 33.26483,33.26483097 0,18.371056 -14.893774,33.26483 -33.26483,33.26483 z"
     style="clip-rule:evenodd;fill:#aab8c2;fill-opacity:1;fill-rule:evenodd"
     id="path3"
     inkscape:connector-curvature="0" /></svg>